<svg xmlns="http://www.w3.org/2000/svg" viewBox="0 0 240 64" role="img" aria-label="Under Armour">
  <g fill="#111317">
    <path d="M35 6c18 0 29 8 29 19 0 8-6 13-15 16L35 32 21 41C12 38 6 33 6 25 6 14 17 6 35 6Zm0 11c-9 0-14 3-14 8 0 2 2 4 5 6l9-6 9 6c3-2 5-4 5-6 0-5-5-8-14-8Z"/>
    <path d="M21 43 35 34l14 9c9-3 15-8 15-16v12c0 11-11 19-29 19S6 50 6 39V27c0 8 6 13 15 16Z"/>
    <text x="75" y="30" font-family="Arial, Helvetica, sans-serif" font-size="18" font-weight="700">UNDER</text>
    <text x="75" y="50" font-family="Arial, Helvetica, sans-serif" font-size="18" font-weight="700">ARMOUR</text>
  </g>
</svg>
