<svg xmlns="http://www.w3.org/2000/svg" viewBox="0 0 960 720" width="960" height="720" role="img" aria-label="Port Authority Cali Throw">
  <defs>
    <linearGradient id="bg" x1="0" x2="1" y1="0" y2="1"><stop offset="0" stop-color="#fff9ef"/><stop offset="1" stop-color="#d6dfc2"/></linearGradient>
    <filter id="shadow" x="-20%" y="-20%" width="140%" height="140%"><feDropShadow dx="0" dy="18" stdDeviation="18" flood-color="#000" flood-opacity=".20"/></filter>
  </defs>
  <rect width="960" height="720" fill="url(#bg)"/>
  <circle cx="780" cy="120" r="190" fill="#4e638b" opacity=".09"/>
  <circle cx="160" cy="620" r="170" fill="#ffffff" opacity=".22"/>
  <path d="M0 575 C210 520 310 660 520 600 C710 548 780 610 960 555 L960 720 L0 720Z" fill="#fff" opacity=".28"/>
<rect x="70" y="62" width="820" height="590" rx="34" fill="#fff" opacity=".55"/><g filter="url(#shadow)"><rect x="280" y="230" width="400" height="300" rx="26" fill="#4e638b"/><path d="M315 230 V530 M385 230 V530 M455 230 V530 M525 230 V530 M595 230 V530" stroke="#fff" stroke-opacity=".18" stroke-width="8"/><path d="M280 302 H680 M280 374 H680 M280 446 H680" stroke="#342f2a" stroke-opacity=".18" stroke-width="10"/></g><path d="M446 378 L470 344 L485 366 L498 348 L522 378 Z" fill="none" stroke="#fff" stroke-width="7" stroke-linejoin="round"/><path d="M470 344 L484 378" stroke="#fff" stroke-width="5" opacity=".8"/><text x="480" y="404" font-family="Arial, Helvetica, sans-serif" font-size="24" font-weight="800" fill="#ffffff" text-anchor="middle" letter-spacing="1.5">FIELDSTONE</text><text x="74" y="112" font-family="Arial, Helvetica, sans-serif" font-size="26" font-weight="900" fill="#342f2a" letter-spacing="3">EMPLOYEE PROGRAMS</text></svg>