<svg xmlns="http://www.w3.org/2000/svg" viewBox="0 0 960 720" width="960" height="720" role="img" aria-label="Sportsman 8\&quot; Marled Beanie">
  <defs>
    <linearGradient id="bg" x1="0" x2="1" y1="0" y2="1"><stop offset="0" stop-color="#f7f0e7"/><stop offset="1" stop-color="#e1c4aa"/></linearGradient>
    <filter id="shadow" x="-20%" y="-20%" width="140%" height="140%"><feDropShadow dx="0" dy="18" stdDeviation="18" flood-color="#000" flood-opacity=".20"/></filter>
  </defs>
  <rect width="960" height="720" fill="url(#bg)"/>
  <circle cx="780" cy="120" r="190" fill="#2d6460" opacity=".09"/>
  <circle cx="160" cy="620" r="170" fill="#ffffff" opacity=".22"/>
  <path d="M0 575 C210 520 310 660 520 600 C710 548 780 610 960 555 L960 720 L0 720Z" fill="#fff" opacity=".28"/>
<rect x="70" y="62" width="820" height="590" rx="34" fill="#fff" opacity=".55"/><g filter="url(#shadow)"><path d="M300 404 C320 260 632 260 656 404 C560 438 410 436 300 404 Z" fill="#2d6460"/><path d="M648 402 C742 400 818 432 844 488 C756 494 676 474 610 438 Z" fill="#202629"/><path d="M420 286 C402 332 400 374 404 420" stroke="#fff" stroke-opacity=".18" stroke-width="10"/><path d="M540 286 C558 332 560 374 556 420" stroke="#fff" stroke-opacity=".18" stroke-width="10"/></g><path d="M448 378 L472 344 L487 366 L500 348 L524 378 Z" fill="none" stroke="#fff" stroke-width="7" stroke-linejoin="round"/><path d="M472 344 L486 378" stroke="#fff" stroke-width="5" opacity=".8"/><text x="482" y="398" font-family="Arial, Helvetica, sans-serif" font-size="24" font-weight="800" fill="#ffffff" text-anchor="middle" letter-spacing="1.5">VERDE &amp; CO</text><text x="74" y="112" font-family="Arial, Helvetica, sans-serif" font-size="26" font-weight="900" fill="#202629" letter-spacing="3">APPAREL</text></svg>