<svg xmlns="http://www.w3.org/2000/svg" viewBox="0 0 960 720" width="960" height="720" role="img" aria-label="Nike Commute Tote">
  <defs>
    <linearGradient id="bg" x1="0" x2="1" y1="0" y2="1"><stop offset="0" stop-color="#fff9f2"/><stop offset="1" stop-color="#cdd6d1"/></linearGradient>
    <filter id="shadow" x="-20%" y="-20%" width="140%" height="140%"><feDropShadow dx="0" dy="18" stdDeviation="18" flood-color="#000" flood-opacity=".20"/></filter>
  </defs>
  <rect width="960" height="720" fill="url(#bg)"/>
  <circle cx="780" cy="120" r="190" fill="#7b4f3a" opacity=".09"/>
  <circle cx="160" cy="620" r="170" fill="#ffffff" opacity=".22"/>
  <path d="M0 575 C210 520 310 660 520 600 C710 548 780 610 960 555 L960 720 L0 720Z" fill="#fff" opacity=".28"/>
<rect x="70" y="62" width="820" height="590" rx="34" fill="#fff" opacity=".55"/><g filter="url(#shadow)"><path d="M362 230 C362 156 598 156 598 230 L634 564 C638 604 606 628 566 628 L394 628 C354 628 322 604 326 564 Z" fill="#103f49"/><path d="M407 226 C418 162 542 162 553 226" fill="none" stroke="#7b4f3a" stroke-width="28" stroke-linecap="round"/><path d="M360 350 H600" stroke="#fff" stroke-opacity=".16" stroke-width="16"/><rect x="385" y="440" width="190" height="118" rx="20" fill="#000" opacity=".18"/></g><path d="M446 410 L470 376 L485 398 L498 380 L522 410 Z" fill="none" stroke="#fff" stroke-width="7" stroke-linejoin="round"/><path d="M470 376 L484 410" stroke="#fff" stroke-width="5" opacity=".8"/><text x="480" y="430" font-family="Arial, Helvetica, sans-serif" font-size="24" font-weight="800" fill="#ffffff" text-anchor="middle" letter-spacing="1.5">ELEVATE</text><text x="74" y="112" font-family="Arial, Helvetica, sans-serif" font-size="26" font-weight="900" fill="#103f49" letter-spacing="3">BAGS</text></svg>