<svg xmlns="http://www.w3.org/2000/svg" viewBox="0 0 960 720" width="960" height="720" role="img" aria-label="Berne Apparel Men&#x27;s Hi-Vis Class 3 Color Block Full-Zip ...">
  <defs>
    <linearGradient id="bg" x1="0" x2="1" y1="0" y2="1"><stop offset="0" stop-color="#fff9f2"/><stop offset="1" stop-color="#cdd6d1"/></linearGradient>
    <filter id="shadow" x="-20%" y="-20%" width="140%" height="140%"><feDropShadow dx="0" dy="18" stdDeviation="18" flood-color="#000" flood-opacity=".20"/></filter>
  </defs>
  <rect width="960" height="720" fill="url(#bg)"/>
  <circle cx="780" cy="120" r="190" fill="#7b4f3a" opacity=".09"/>
  <circle cx="160" cy="620" r="170" fill="#ffffff" opacity=".22"/>
  <path d="M0 575 C210 520 310 660 520 600 C710 548 780 610 960 555 L960 720 L0 720Z" fill="#fff" opacity=".28"/>
<rect x="70" y="62" width="820" height="590" rx="34" fill="#fff" opacity=".55"/><g filter="url(#shadow)"><path d="M326 174 L408 132 H552 L634 174 L716 298 L628 352 L602 266 V612 H358 V266 L332 352 L244 298 Z" fill="#7b4f3a"/><path d="M408 132 C420 190 540 190 552 132" fill="#fff9f2" opacity=".9"/><path d="M480 190 V612" stroke="#fff" stroke-opacity=".16" stroke-width="12"/></g><path d="M446 378 L470 344 L485 366 L498 348 L522 378 Z" fill="none" stroke="#fff" stroke-width="7" stroke-linejoin="round"/><path d="M470 344 L484 378" stroke="#fff" stroke-width="5" opacity=".8"/><text x="480" y="402" font-family="Arial, Helvetica, sans-serif" font-size="25" font-weight="800" fill="#ffffff" text-anchor="middle" letter-spacing="1.5">SUMMIT OPEN</text><text x="74" y="112" font-family="Arial, Helvetica, sans-serif" font-size="26" font-weight="900" fill="#103f49" letter-spacing="3">APPAREL</text></svg>