<svg xmlns="http://www.w3.org/2000/svg" viewBox="0 0 960 720" width="960" height="720" role="img" aria-label="Berne Apparel Men&#x27;s Hi-Vis Class 2 Multi-Color Vest Bern...">
  <defs>
    <linearGradient id="bg" x1="0" x2="1" y1="0" y2="1"><stop offset="0" stop-color="#faf6eb"/><stop offset="1" stop-color="#d9b56f"/></linearGradient>
    <filter id="shadow" x="-20%" y="-20%" width="140%" height="140%"><feDropShadow dx="0" dy="18" stdDeviation="18" flood-color="#000" flood-opacity=".20"/></filter>
  </defs>
  <rect width="960" height="720" fill="url(#bg)"/>
  <circle cx="780" cy="120" r="190" fill="#315c4e" opacity=".09"/>
  <circle cx="160" cy="620" r="170" fill="#ffffff" opacity=".22"/>
  <path d="M0 575 C210 520 310 660 520 600 C710 548 780 610 960 555 L960 720 L0 720Z" fill="#fff" opacity=".28"/>
<rect x="70" y="62" width="820" height="590" rx="34" fill="#fff" opacity=".55"/><g filter="url(#shadow)"><path d="M322 180 H638 L704 602 H256 Z" fill="#315c4e"/><path d="M390 180 L480 310 L570 180" fill="#262423" opacity=".85"/><path d="M282 340 H678 M314 500 H646" stroke="#d7e52a" stroke-width="26" opacity=".9"/><path d="M372 210 L318 602 M588 210 L642 602" stroke="#d7e52a" stroke-width="22" opacity=".9"/></g><path d="M446 428 L470 394 L485 416 L498 398 L522 428 Z" fill="none" stroke="#fff" stroke-width="7" stroke-linejoin="round"/><path d="M470 394 L484 428" stroke="#fff" stroke-width="5" opacity=".8"/><text x="480" y="452" font-family="Arial, Helvetica, sans-serif" font-size="24" font-weight="800" fill="#ffffff" text-anchor="middle" letter-spacing="1.5">PACIFICA</text><text x="74" y="112" font-family="Arial, Helvetica, sans-serif" font-size="26" font-weight="900" fill="#262423" letter-spacing="3">APPAREL</text></svg>